{"title":"Vera S04","uid":10200243,"size":3213020988,"categoryP":"video","categoryS":"tv_shows","magnet":"?xt=urn:btih:7da36e30233cb1f9a833a3af29910c14761d3a35&amp;dn=Vera+S04&amp;tr=udp%3A%2F%2Ftracker.openbittorrent.com%3A80&amp;tr=udp%3A%2F%2Fopen.demonii.com%3A1337&amp;tr=udp%3A%2F%2Ftracker.coppersurfer.tk%3A6969&amp;tr=udp%3A%2F%2Fexodus.desync.com%3A6969","seeders":10,"leechers":3,"uploader":"RedBaron58","files":4,"time":1400719331,"description":"Vera Season 4 (2014) UK Crime Drama x264 mp4\n &lt;a href=&quot;\nhttp://www.imdb.com/title/tt1693592/&quot; rel=&quot;nofollow&quot; target=&quot;_NEW&quot;&gt;\nhttp://www.imdb.com/title/tt1693592/&lt;/a&gt;\n\n\nThank you for your kind comments and thumbs ups on my other torrents, your feedback is welcome.\n\n\nAbout the Series:\nThe central character is Detective Chief Inspector Vera Stanhope. Who is obsessive about her work \nand driven by her own demons. If she's lonely she doesn't show it and faces the world with caustic wit, \nguile and courage. Her trusted and long suffering colleague is Sergeant Joe Ashworth. \nTogether they approach every new case with unparalleled gusto and professionalism.\n\n\nI hope you enjoy.\n\n\nTechnical: (All episode encoded to same settings)\n\nGeneral\nComplete name                            : G:Vera S04Vera S04E01 On Harbour Street x264 RB58.mp4\nFormat                                   : MPEG-4\nFormat profile                           : Base Media\nCodec ID                                 : isom\nFile size                                : 771 MiB\nDuration                                 : 1h 29mn\nOverall bit rate mode                    : Constant\nOverall bit rate                         : 1 203 Kbps\nWriting application                      : Lavf54.63.104\n\nVideo\nID                                       : 1\nFormat                                   : AVC\nFormat/Info                              : Advanced Video Codec\nFormat profile                           : &lt;a class=&quot;__cf_email__&quot; href=&quot;/cdn-cgi/l/email-protection&quot; data-cfemail=&quot;99d4f8f0f7d9d5aab7a8&quot;&gt;[email&amp;#160;protected]&lt;/a&gt;&lt;script data-cfhash='f9e31' type=&quot;text/javascript&quot;&gt;\n/* &lt;![CDATA[ */!function(){try{var t=&quot;currentScript&quot;in document?document.currentScript:function(){for(var t=document.getElementsByTagName(&quot;script&quot;),e=t.length;e--;)if(t[e].getAttribute(&quot;data-cfhash&quot;))return t[e]}();if(t&amp;&amp;t.previousSibling){var e,r,n,i,c=t.previousSibling,a=c.getAttribute(&quot;data-cfemail&quot;);if(a){for(e=&quot;&quot;,r=parseInt(a.substr(0,2),16),n=2;a.length-n;n+=2)i=parseInt(a.substr(n,2),16)^r,e+=String.fromCharCode(i);e=document.createTextNode(e),c.parentNode.replaceChild(e,c)}t.parentNode.removeChild(t);}}catch(u){}}()/* ]]&gt; */&lt;/script&gt;\nFormat settings, CABAC                   : Yes\nFormat settings, ReFrames                : 6 frames\nCodec ID                                 : avc1\nCodec ID/Info                            : Advanced Video Coding\nDuration                                 : 1h 29mn\nBit rate mode                            : Constant\nBit rate                                 : 1 104 Kbps / 1 104 Kbps\nWidth                                    : 704 pixels\nHeight                                   : 396 pixels\nDisplay aspect ratio                     : 16:9\nFrame rate mode                          : Constant\nFrame rate                               : 25.000 fps\nColor space                              : YUV\nChroma subsampling                       : 4:2:0\nBit depth                                : 8 bits\nScan type                                : Progressive\nBits/(Pixel*Frame)                       : 0.158\nStream size                              : 707 MiB (92%)\nWriting library                          : x264 core 129\nEncoding settings                        : cabac=1 / ref=6 / deblock=1:-1:0\n\nAudio\nID                                       : 2\nFormat                                   : AAC\nFormat/Info                              : Advanced Audio Codec\nFormat profile                           : LC\nCodec ID                                 : 40\nDuration                                 : 1h 29mn\nBit rate mode                            : Constant\nBit rate                                 : 93.5 Kbps\nChannel(s)                               : 2 channels\nChannel positions                        : Front: L R\nSampling rate                            : 48.0 KHz\nCompression mode                         : Lossy\nStream size                              : 59.9 MiB (8%)","torrent":{"xt":"urn:btih:7da36e30233cb1f9a833a3af29910c14761d3a35","amp;dn":"Vera+S04","amp;tr":["udp%3A%2F%2Ftracker.openbittorrent.com%3A80","udp%3A%2F%2Fopen.demonii.com%3A1337","udp%3A%2F%2Ftracker.coppersurfer.tk%3A6969","udp%3A%2F%2Fexodus.desync.com%3A6969"],"infoHash":"7da36e30233cb1f9a833a3af29910c14761d3a35","infoHashBuffer":{"type":"Buffer","data":[125,163,110,48,35,60,177,249,168,51,163,175,41,145,12,20,118,29,58,53]},"announce":[],"urlList":[]}}